<svg width="24" height="25" viewBox="0 0 24 25" fill="none" xmlns="http://www.w3.org/2000/svg">
<path fill-rule="evenodd" clip-rule="evenodd" d="M18.7071 5.51347C19.0976 5.92027 19.0976 6.57981 18.7071 6.98661L6.70711 19.4866C6.31658 19.8934 5.68342 19.8934 5.29289 19.4866C4.90237 19.0798 4.90237 18.4203 5.29289 18.0135L17.2929 5.51347C17.6834 5.10667 18.3166 5.10667 18.7071 5.51347Z" fill="#69B99D"/>
<path fill-rule="evenodd" clip-rule="evenodd" d="M5.29289 5.51347C5.68342 5.10667 6.31658 5.10667 6.70711 5.51347L18.7071 18.0135C19.0976 18.4203 19.0976 19.0798 18.7071 19.4866C18.3166 19.8934 17.6834 19.8934 17.2929 19.4866L5.29289 6.98661C4.90237 6.57981 4.90237 5.92027 5.29289 5.51347Z" fill="#69B99D"/>
</svg>
