<svg width="80" height="81" viewBox="0 0 80 81" fill="none" xmlns="http://www.w3.org/2000/svg">
<path d="M4.47192 8.94043L9.45824 67.0044V72.014C9.46264 75.5074 12.258 78.3377 15.7082 78.3422H28.2082C31.6584 78.3377 34.4538 75.5074 34.4582 72.014V67.0044L39.4441 8.94043L40.6711 3.9778C40.7644 3.59959 40.6809 3.19865 40.4436 2.89163C40.2068 2.58462 39.8435 2.40466 39.4582 2.40466H4.45825C4.07299 2.40466 3.7102 2.58462 3.47241 2.89163C3.23559 3.19865 3.15209 3.59959 3.24536 3.9778L4.47192 8.94043ZM33.2585 51.764H10.6584L10.0071 44.1703H33.9094L33.2585 51.764ZM33.0412 54.2953L32.0622 65.6859H11.8547L10.8757 54.2953H33.0412ZM17.5832 68.2172H26.3332V69.4828C26.3332 70.1819 25.7737 70.7484 25.0832 70.7484H18.8332C18.1428 70.7484 17.5832 70.1819 17.5832 69.4828V68.2172ZM31.9582 72.014C31.9582 74.1107 30.279 75.8109 28.2082 75.8109H15.7082C13.6374 75.8109 11.9582 74.1107 11.9582 72.014V68.2172H15.0832V69.4828C15.0832 71.5795 16.7624 73.2797 18.8332 73.2797H25.0832C27.154 73.2797 28.8332 71.5795 28.8332 69.4828V68.2172H31.9582V72.014ZM34.1267 41.639H9.78979L7.07201 9.99841H36.845L34.1267 41.639ZM37.8567 4.93591L37.2317 7.46716H6.68432L6.05932 4.93591H37.8567Z" fill="#69B99D"/>
<path d="M50.7084 78.3422H68.2084C70.2792 78.3422 71.9584 76.642 71.9584 74.5453V26.4515C71.9555 23.9381 70.4833 21.6654 68.2084 20.6598V16.3265C68.2084 15.6275 67.6488 15.0609 66.9584 15.0609H63.2084V9.99841H75.7084C76.2138 9.99841 76.6698 9.68992 76.8632 9.21729C77.0566 8.74465 76.9491 8.19984 76.5922 7.83795L74.0922 5.3067C73.9013 5.1134 73.6532 4.98782 73.3861 4.94827L55.8861 2.41702C55.827 2.40911 55.7675 2.40466 55.7084 2.40466H50.7084C50.0179 2.40466 49.4584 2.97123 49.4584 3.67029V8.73279C49.4584 9.43185 50.0179 9.99841 50.7084 9.99841H55.7084V15.0609H51.9584C51.268 15.0609 50.7084 15.6275 50.7084 16.3265V20.6598C48.4335 21.6654 46.9613 23.9381 46.9584 26.4515V74.5453C46.9584 76.642 48.6376 78.3422 50.7084 78.3422ZM69.4584 32.7797H49.4584V30.2484H69.4584V32.7797ZM69.4584 60.6234H49.4584V35.3109H69.4584V60.6234ZM68.2084 75.8109H50.7084C50.0179 75.8109 49.4584 75.2444 49.4584 74.5453V63.1547H69.4584V74.5453C69.4584 75.2444 68.8988 75.8109 68.2084 75.8109ZM51.9584 4.93591H55.62L72.6195 7.39498L72.6908 7.46716H51.9584V4.93591ZM58.2084 9.99841H60.7084V15.0609H58.2084V9.99841ZM53.2084 17.5922H65.7084V20.1234H53.2084V17.5922ZM53.2084 22.6547H65.7084C67.7792 22.6547 69.4584 24.3549 69.4584 26.4515V27.7172H49.4584V26.4515C49.4584 24.3549 51.1376 22.6547 53.2084 22.6547Z" fill="#69B99D"/>
<path d="M14.4584 49.2328H29.4584C30.1488 49.2328 30.7084 48.6662 30.7084 47.9672C30.7084 47.2681 30.1488 46.7015 29.4584 46.7015H14.4584C13.7679 46.7015 13.2084 47.2681 13.2084 47.9672C13.2084 48.6662 13.7679 49.2328 14.4584 49.2328Z" fill="#69B99D"/>
<path d="M59.4584 70.7484H54.4584V66.9515C54.4584 66.2525 53.8988 65.6859 53.2084 65.6859C52.5179 65.6859 51.9584 66.2525 51.9584 66.9515V72.014C51.9584 72.7131 52.5179 73.2797 53.2084 73.2797H59.4584C60.1488 73.2797 60.7084 72.7131 60.7084 72.014C60.7084 71.315 60.1488 70.7484 59.4584 70.7484Z" fill="#69B99D"/>
<path d="M65.7084 70.7484H64.4584C63.7679 70.7484 63.2084 71.315 63.2084 72.014C63.2084 72.7131 63.7679 73.2797 64.4584 73.2797H65.7084C66.3988 73.2797 66.9584 72.7131 66.9584 72.014C66.9584 71.315 66.3988 70.7484 65.7084 70.7484Z" fill="#69B99D"/>
<path d="M27.8133 63.0904C28.4686 63.3104 29.1751 62.952 29.3929 62.289L30.6429 58.4921C30.8616 57.8281 30.5071 57.1108 29.8509 56.8893C29.1946 56.6688 28.4866 57.0277 28.2684 57.6922L27.0184 61.4891C26.9139 61.808 26.9388 62.156 27.0877 62.4561C27.2366 62.7567 27.4979 62.9846 27.8133 63.0904Z" fill="#69B99D"/>
</svg>
