<svg width="24" height="25" viewBox="0 0 24 25" fill="none" xmlns="http://www.w3.org/2000/svg">
<path fill-rule="evenodd" clip-rule="evenodd" d="M2 12.5C2 11.9247 2.44772 11.4584 3 11.4584H21C21.5523 11.4584 22 11.9247 22 12.5C22 13.0753 21.5523 13.5417 21 13.5417H3C2.44772 13.5417 2 13.0753 2 12.5Z" fill="#69B99D"/>
<path fill-rule="evenodd" clip-rule="evenodd" d="M2 6.25004C2 5.67474 2.44772 5.20837 3 5.20837H21C21.5523 5.20837 22 5.67474 22 6.25004C22 6.82534 21.5523 7.29171 21 7.29171H3C2.44772 7.29171 2 6.82534 2 6.25004Z" fill="#69B99D"/>
<path fill-rule="evenodd" clip-rule="evenodd" d="M2 18.75C2 18.1747 2.44772 17.7084 3 17.7084H21C21.5523 17.7084 22 18.1747 22 18.75C22 19.3253 21.5523 19.7917 21 19.7917H3C2.44772 19.7917 2 19.3253 2 18.75Z" fill="#69B99D"/>
</svg>
